<svg xmlns="http://www.w3.org/2000/svg" viewBox="0 0 50 50"><defs><style>.cls-1{fill:#2f2f40;}</style></defs><title>hacker</title><g id="Layer_2" data-name="Layer 2"><g id="laptop"><path class="cls-1" d="M46,0H4A4,4,0,0,0,0,4V46a4,4,0,0,0,4,4H46a4,4,0,0,0,4-4V4A4,4,0,0,0,46,0ZM32.84,45.66c-.51,0-5.34-4.68-5-5.06a7.33,7.33,0,0,1,2.29-.24v-.12c0-2.94.08-8.4.14-11.16,0-.25-.06-.44-.06-.75H19.82c0,1.27,0,2.63,0,4,0,1.77.09,3.78.17,5.56,0,.58-.21.77-.76.77h-4c-.54,0-.77-.2-.75-.8.11-3.64.21-7.56.21-11.21,0-4.34-.11-12.21-.23-16.57v-.4a7.28,7.28,0,0,1-2.25-.26c-.39-.38,4.52-5,5-5s5.39,4.66,5,5a8.31,8.31,0,0,1-2.19.26V10c-.32,3.37-.25,10.4-.34,13.77H30.2c0-1.38,0-2.63,0-3.91,0-2.23-.08-4.79-.14-7,0-.43.11-.67.54-.67h4.34c.45,0,.59.24.59.72-.1,5-.24,10.31-.25,15.31,0,3,.06,8.77.17,12v.17a9.69,9.69,0,0,1,2.31.24C38.13,41,33.37,45.66,32.84,45.66Z"/></g></g></svg>