<svg xmlns="http://www.w3.org/2000/svg" viewBox="0 0 50 50"><defs><style>.cls-1{fill:#2f2f40;}</style></defs><title>insta</title><g id="Layer_2" data-name="Layer 2"><g id="laptop"><path class="cls-1" d="M32.81,10.66H17.19a6.54,6.54,0,0,0-6.53,6.53V32.81a6.54,6.54,0,0,0,6.53,6.53H32.81a6.54,6.54,0,0,0,6.53-6.53V17.19A6.54,6.54,0,0,0,32.81,10.66ZM25,34a9,9,0,1,1,9-9A9,9,0,0,1,25,34ZM36,17.27a2.27,2.27,0,0,1-3.87-1.61,2.24,2.24,0,0,1,.67-1.6,2.27,2.27,0,0,1,3.87,1.6A2.32,2.32,0,0,1,36,17.27Z"/><circle class="cls-1" cx="25" cy="25" r="5.89"/><path class="cls-1" d="M46,0H4A4,4,0,0,0,0,4V46a4,4,0,0,0,4,4H46a4,4,0,0,0,4-4V4A4,4,0,0,0,46,0ZM42.43,32.81a9.64,9.64,0,0,1-9.62,9.62H17.19a9.64,9.64,0,0,1-9.62-9.62V17.19a9.64,9.64,0,0,1,9.62-9.62H32.81a9.64,9.64,0,0,1,9.62,9.62Z"/></g></g></svg>