<svg xmlns="http://www.w3.org/2000/svg" viewBox="0 0 50 50"><defs><style>.cls-1{fill:#2f2f40;}</style></defs><title>linkedin</title><g id="Layer_2" data-name="Layer 2"><g id="laptop"><path class="cls-1" d="M46,0H4A4,4,0,0,0,0,4V46a4,4,0,0,0,4,4H46a4,4,0,0,0,4-4V4A4,4,0,0,0,46,0ZM15.46,41.69H8V19.17h7.48ZM11.73,16.1h-.06a3.91,3.91,0,1,1,.11-7.79,3.91,3.91,0,1,1,0,7.79ZM42.47,41.69H35v-12c0-3-1.09-5.1-3.79-5.1a4.09,4.09,0,0,0-3.84,2.74,5.07,5.07,0,0,0-.25,1.83V41.69H19.61s.1-20.4,0-22.52H27.1v3.19a7.43,7.43,0,0,1,6.74-3.72c4.93,0,8.63,3.21,8.63,10.13Z"/></g></g></svg>