<svg xmlns="http://www.w3.org/2000/svg" viewBox="0 0 50 50"><defs><style>.cls-1{fill:#2f2f40;}</style></defs><title>github</title><g id="Layer_2" data-name="Layer 2"><g id="laptop"><path class="cls-1" d="M50,4V46a4,4,0,0,1-4,4H32.77a1.35,1.35,0,0,1-.45-1c0-.91,0-3.94,0-7.69,0-2.62-.9-4.34-1.91-5.2,6.26-.69,12.81-3.07,12.81-13.84a10.8,10.8,0,0,0-2.88-7.53,10.06,10.06,0,0,0-.28-7.42s-2.35-.76-7.71,2.87a26.68,26.68,0,0,0-14,0C13,6.51,10.63,7.27,10.63,7.27a10,10,0,0,0-.27,7.42,10.81,10.81,0,0,0-2.89,7.53C7.47,33,14,35.37,20.25,36.09a6,6,0,0,0-1.78,3.75c-1.6.71-5.66,2-8.17-2.34A5.89,5.89,0,0,0,6,34.61s-2.74,0-.2,1.7c0,0,1.84.88,3.12,4.11,0,0,1.65,5.45,9.45,3.76,0,2.34,0,4.1,0,4.77A1.34,1.34,0,0,1,18,50H4a4,4,0,0,1-4-4V4A4,4,0,0,1,4,0H46A4,4,0,0,1,50,4Z"/></g></g></svg>